<?xml version="1.0" standalone="no"?>
<!DOCTYPE svg PUBLIC "-//W3C//DTD SVG 1.1//EN" "http://www.w3.org/Graphics/SVG/1.1/DTD/svg11.dtd">
<svg xmlns="http://www.w3.org/2000/svg">
<metadata>Generated by Fontastic.me</metadata>
<defs>
<font id="inteno-gui-icons" horiz-adv-x="512">
<font-face font-family="inteno-gui-icons" units-per-em="512" ascent="480" descent="-32"/>
<missing-glyph horiz-adv-x="512" />

<glyph unicode="&#97;" d="M250 340c-43 0-78-35-78-78 0-42 35-77 78-77 42 0 77 35 77 77 0 43-35 78-77 78z m45-89l-34 0 0-34-24 0 0 34-33 0 0 24 33 0 0 33 24 0 0-33 34 0z"/>
<glyph unicode="&#98;" d="M318 207l-50 50 50 50-73 71-1-97-36 36-13-13 47-47-47-48 13-14 36 37 0-98z m-54 126l27-26-28-29z m-1-98l28-28-29-28z"/>
<glyph unicode="&#99;" d="M313 287c-6 0-10-4-10-10l0-36 21 0 0 36c-1 6-5 10-11 10z m38-60l-232 0c-13 0-22-11-22-23l0-54c0-12 10-22 22-22l232 0c13 0 23 10 23 22l0 54c0 12-10 23-23 23z m-222-46c-6 0-11 5-11 10 0 6 5 11 11 11 5 0 10-5 10-11 1-5-4-10-10-10z m30 0c-6 0-11 5-11 10 0 6 5 11 11 11 5 0 10-5 10-11 1-5-5-10-10-10z m30 0c-6 0-10 5-10 10 0 6 4 11 10 11 6 0 10-5 10-11 1-5-4-10-10-10z m30 0c-6 0-10 5-10 10 0 6 4 11 10 11 6 0 10-5 10-11 0-5-4-10-10-10z m30 0c-6 0-10 5-10 10 0 6 4 11 10 11 6 0 10-5 10-11 0-5-4-10-10-10z m6 128c-4-4-4-11 0-16 4-4 11-4 16-1 23 23 61 23 84 0 2-1 5-3 8-3 3 0 6 2 8 3 5 5 5 12 0 16-32 32-83 32-116 1z m151 35c-51 52-133 52-186 0-4-4-4-11 0-16 5-4 12-4 16 0 44 43 112 43 155 0 2-2 5-3 8-3 3 0 5 1 8 3 4 5 4 12-1 16z"/>
<glyph unicode="&#100;" d="M452 365l-224 0c-7 0-13-5-13-12l0-152c0-7 6-13 13-13l96 0 0-16-27 0c-5 0-10-5-12-11l-7-21c-2-9 1-16 8-16l108 0c7 0 10 7 7 16l-7 21c-2 6-7 11-12 11l-26 0 0 16 96 0c8 0 13 6 13 13l0 152c0 7-6 12-13 12z m-3-161l-219 0 0 145 219 0z m-297 172l-85 0c-11 0-20-9-20-20l0-213c0-11 9-20 20-20l85 0c11 0 20 9 20 20l0 213c0 11-9 20-20 20z m-43-217c-5 0-9 4-9 9 0 5 4 9 9 9 6 0 9-4 9-9 0-5-3-9-9-9z m41 155l-81 0c-4 0-6 3-6 6 0 4 3 6 6 6l81 0c4 0 7-3 7-6 0-4-3-6-7-6z m0 24l-81 0c-4 0-6 3-6 6 0 4 3 7 6 7l81 0c4 0 7-3 7-7 0-4-3-6-7-6z"/>
<glyph unicode="&#101;" d="M371 167l-138 138c-5 5-14 5-20 0l-56-56c-5-5-5-14 0-20l137-138c6-5 14-5 20 0l57 56c5 6 5 15 0 20z m-49 28c2-2 3-5 3-8 0-3-1-6-3-8-2-2-5-4-8-4-4 0-6 2-9 4-2 1-3 5-3 8 0 3 1 6 3 8 5 5 12 5 17 0z m-36-19c5 4 12 4 16 0 2-2 3-5 3-8 0-4-1-6-3-9-2-2-5-3-8-3-3 0-6 1-9 3-3 5-3 13 1 17z m-4 3c-2-2-5-3-8-3-3 0-6 1-8 3-2 2-4 5-4 9 0 3 2 5 4 8 4 4 11 4 16 0 5-5 5-12 0-17z m4 36c5 5 12 5 16 0 2-2 3-5 3-8 0-3-1-6-3-9-2-2-5-3-8-3-3 0-6 1-9 3-3 6-3 13 1 17z m-114 22l53 54 57-58-53-54z m83-81c-3 0-6 1-9 3-2 2-3 5-3 9 0 3 1 5 3 8 5 4 12 4 16 0 2-2 4-5 4-8 0-4-2-6-4-9-2-2-4-3-7-3z m20-20c-4 0-6 2-9 4-2 1-3 5-3 8 0 3 1 6 3 8 5 5 12 5 16 0 5-4 5-11 0-16-2-2-5-4-7-4z m27-16c-2-2-5-3-8-3-3 0-6 1-9 3-4 5-4 12 0 16 5 5 12 5 16 0 2-2 4-5 4-8 0-3-1-6-3-8z m20 20c-2-2-5-3-8-3-4 0-6 1-9 3-2 2-3 5-3 8 0 4 1 6 3 9 5 4 12 4 16 0 2-2 3-5 3-9 1-3 0-6-2-8z m20 19c-2-2-5-3-9-3-3 0-5 1-8 3-2 2-3 5-3 9 0 3 1 5 3 8 5 4 12 4 16 0 5-4 5-12 1-17z m-174 115l-14 14c-4 4-11 4-14 0-4-4-4-10 0-14l14-14z m32 95l8-25c14 5 29 4 43-4 13-7 23-18 27-33l25 8c-14 43-60 67-103 54z m75 18c26-13 45-36 54-63l24 8c-11 33-34 62-66 78-32 17-67 20-102 9l8-24c27 8 57 6 82-8z"/>
<glyph unicode="&#102;" d="M403 252l0 14-63 0 0 32 18 0 0 51-51 0 0-51 19 0 0-32-95 0 0 32 17 0 0 51-51 0 0-51 19 0 0-32-52 0c-3 12-14 21-27 21-15 0-28-12-28-28 0-15 13-28 28-28 13 0 24 9 27 21l107 0 0-37-17 0 0-51 51 0 0 51-19 0 0 37 117 0z"/>
<glyph unicode="&#103;" d="M256 378c-67 0-122-55-122-122 0-67 55-122 122-122 67 0 122 55 122 122 0 67-55 122-122 122z m-106-130l41 0c0-14 2-27 5-39l-34 0c-6 11-10 25-12 39z m114 72l0 40c12-4 23-19 31-40z m36-16c3-12 5-26 5-40l-42 0 0 40z m-52 56l0-40-31 0c8 20 19 36 31 40z m0-56l0-40-41 0c0 14 2 28 5 40z m-57-40l-41 0c2 14 6 27 11 39l34 0c-2-11-4-25-4-39z m16-16l41 0 0-39-36 0c-3 11-5 25-5 39z m41-55l0-41c-12 4-23 20-31 41z m16-41l0 41 31 0c-8-21-19-37-31-41z m0 56l0 40 41 0c0-14-2-28-5-40z m57 40l41 0c-2-14-6-27-11-39l-34 0c2 12 4 25 4 39z m0 16c0 14-2 27-5 39l34 0c6-12 10-25 11-39z m19 56l-28 0c-5 13-11 26-18 35 19-8 34-20 46-35z m-122 35c-7-10-13-22-18-35l-28 0c12 15 27 27 46 35z m-46-162l28 0c5-14 11-26 18-35-19 7-35 19-46 35z m122-36c7 10 13 22 18 35l28 0c-11-15-27-27-46-35z"/>
<glyph unicode="&#104;" d="M356 275c-6 3-14 5-21 5l-79 0c1 14 4 29 13 40 7 11 18 17 31 17l0 14c-18 0-32-7-43-23-9-12-14-30-15-48l-75 0c-8 0-15-2-22-5-29-6-50-31-50-61 0-35 29-63 63-63 20 0 38 9 49 24l87 0c12-14 30-24 50-24 34 0 62 28 62 63 0 30-21 55-50 61z m-176-67l-19 0 0-20-14 0 0 20-20 0 0 13 20 0 0 20 14 0 0-20 19 0z m95 10l-47 0 0 12 47 0z m79-39c-6 0-11 5-11 10 0 7 5 11 11 11 6 0 11-5 11-11 0-5-5-10-11-10z m15 34c-7 0-11 5-11 11 0 6 5 11 11 11 6 0 11-5 11-11 0-6-5-11-11-11z"/>
<glyph unicode="&#105;" d="M399 180l0 173c0 7-5 13-12 13l-261 0c-7 0-13-6-13-13l0-173c-8 0-14-2-14-6l0-10c0-10 9-19 19-19l276 0c10 0 19 9 19 19l0 10c0 3-5 6-14 6z m-129-23l-30 0c-4 0-6 2-6 6 0 4 2 7 6 7l30 0c4 0 6-3 6-7 0-4-3-6-6-6z m114 24l-256 0 0 169 256 0z"/>
<glyph unicode="&#106;" d="M176 326c-19 0-36-7-50-20-13-14-20-31-20-50 0-19 7-36 20-50 14-13 31-20 50-20 19 0 36 7 50 20 13 14 20 31 20 50 0 19-7 36-20 50-13 13-31 20-50 20z m43-113c-12-11-26-17-42-17-16 0-31 6-43 17-11 11-17 26-17 42 0 16 7 31 17 43 12 11 27 17 43 17 16 0 30-7 42-17 11-12 17-27 17-43 0-16-6-30-17-42z m120 131l-166 0c-49 0-88-40-88-88 0-49 40-88 88-88l166 0c49 0 88 40 88 88 0 49-39 88-88 88z m0-167l-166 0c-44 0-79 35-79 79 0 44 35 79 79 79l166 0c44 0 79-35 79-79 0-44-35-79-79-79z m-56 107c-14 0-24-11-24-24 0-13 10-24 24-24 14 0 24 11 24 24 0 13-10 24-24 24z m13-24c0-8-5-14-13-14-8 0-14 6-14 14 0 8 6 14 13 14 9 0 14-6 14-14z m21-23l11 0 0 18 21 0 0 9-21 0 0 9 24 0 0 9-35 0z m45 45l0-45 9 0 0 18 22 0 0 9-22 0 0 9 25 0 0 9z"/>
<glyph unicode="&#107;" d="M334 341l-166 0c-48 0-86-38-86-86 0-47 38-85 86-85l166 0c47 0 86 38 86 85 0 48-39 86-86 86z m-150-85c0-13-11-24-25-24-14 0-24 11-24 24 0 13 10 24 24 24 14 0 25-11 25-24z m50-22l-8 0-22 28 0-28-11 0 0 45 9 0 21-28 0 28 11 0 0-45z m146-26c-26-26-68-26-95 0-26 26-26 68 0 95 27 26 69 26 95 0 26-27 26-69 0-95z m-221 63c-8 0-13-7-13-14 0-8 6-14 14-14 8 0 13 6 13 14 0 7-6 14-14 14z"/>
<glyph unicode="&#108;" d="M255 198c-6 0-10 5-10 11l0 92c0 6 5 11 10 11 5 0 5 0 11-2l16 70c-7 1-16 1-27 0-9-2-20-6-26-9-13-23-22-68-22-115 0-45 9-92 22-115 5-3 15-6 24-8 11-2 21-2 27-1l-14 69c-4-1-6-3-11-3z m46 176l-12 4-14-68 10-3c4 0 6 3 7 6l13 52c0 4-1 7-4 9z m-16-172l-10-1 13-69 10 2c3 2 5 6 5 9l-12 54c0 3-2 6-6 5z"/>
<glyph unicode="&#109;" d="M151 154l0-15 210 0 0 27-210 0z m210 198l-210 0 0-93 210 0z m-19-81l-169 0 0 14 169 0z m0 25l-169 0 0 13 169 0z m0 24l-169 0 0 13 169 0z m37-48l-4 0 0-27-237 0 0 27-5 0c-11 0-21-10-21-21l0-77c0-11 10-21 21-21l5 0 0 26 237 0 0-26 4 0c11 0 21 10 21 21l0 77c-1 11-10 21-21 21z m-46-79c-5 0-10 4-10 9 0 5 5 10 10 10 5 0 9-5 9-10 0-5-3-9-9-9z m29 0c-5 0-9 4-9 9 0 5 4 10 9 10 5 0 10-5 10-10 0-5-4-9-10-9z"/>
<glyph unicode="&#110;" d="M250 340c-43 0-78-35-78-78 0-42 35-77 78-77 42 0 77 35 77 77 0 43-35 78-77 78z m45-89l-91 0 0 24 91 0z"/>
<glyph unicode="&#111;" d="M341 356l-22 0c-4 4-9 6-15 6l-25 0c1 2 1 3 1 5 0 14-12 27-27 27-14 0-26-12-26-27 0-2 0-3 1-5l-25 0c-6 0-12-2-15-6l-22 0c-14 0-25-13-25-28l0-169c0-15 11-28 25-28l176 0c14 0 25 13 25 28l0 169c-2 15-12 28-26 28z m8-115l-35 0 0 42 35 0z m-44 0l-47 0 0 42 47 0z m-57 0l-46 0 0 42 46 0z m-57 0l-35 0 0 42 35 0z m-34-10l35 0 0-42-35 0z m44 0l47 0 0-42-47 0z m47-52l0-32-46 0 0 32z m10 0l47 0 0-32-47 0z m0 9l0 42 47 0 0-42z m56 43l35 0 0-42-35 0z m-75 136c0 7 6 14 14 14 7 0 13-6 13-14 0-2 0-3-1-5l-24 0c-1 2-2 3-2 5z m-75-27l17 0c1-11 10-19 21-19l101 0c11 0 20 8 20 19l17 0c4 0 8-6 8-12l0-36-191 0 0 36c0 6 3 12 7 12z m-7-181l0 20 35 0 0-32-27 0c-5 0-8 6-8 12z m184-12l-27 0 0 32 35 0 0-20c0-6-3-12-8-12z m-107 15c0-6-4-10-10-10-6 0-10 4-10 10 0 6 4 10 10 10 6 0 10-4 10-10z m108 47c0-5-5-10-10-10-6 0-11 5-11 10 0 6 5 11 11 11 5 0 10-5 10-11z m-158 52c0-6-5-10-11-10-5 0-10 4-10 10 0 6 5 10 10 10 6 0 11-4 11-10z"/>
<glyph unicode="&#112;" d="M163 270c-7-8-7-20 0-28 1-1 1-1 1-1l0-84 26 0 0 84c1 0 1 0 1 1 8 8 8 20 0 28-7 8-20 8-28 0z m72 37l-18-18c9-9 13-20 13-33 0-12-5-24-13-33l18-18c13 13 21 32 21 51 0 19-8 38-21 51z m38 32l-18-18c17-18 27-41 27-65 0-24-10-47-27-65l18-18c22 23 34 52 34 84 0 30-12 60-34 82z m35 29l-17-18c51-52 51-136 0-188l17-18c63 61 63 163 0 224z"/>
<glyph unicode="&#113;" d="M302 294c3 0 6-1 8-1 16 0 30 11 34 26 2 9 1 19-4 27-5 7-12 13-21 16-3 0-6 1-9 1-16 0-30-11-34-26-1-5-1-11 0-16l-65-38c-5 5-11 8-18 10-2 1-5 1-8 1-16 0-30-10-34-26-2-9-1-18 4-26 5-8 12-14 22-16 2-1 5-1 8-1 8 0 16 3 22 8l66-38c-2-9 0-19 4-27 5-7 12-13 22-16 2 0 6-1 8-1 16 0 30 11 34 26 2 9 1 19-4 27-5 7-12 13-21 16-3 0-6 1-9 1-9 0-18-4-24-10l-65 37c0 1 1 2 1 3 1 5 1 10 0 15l66 37c5-4 11-7 17-9z"/>
<glyph unicode="&#114;" d="M315 379l-118 0c-8 0-13-7-13-14l0-218c0-7 6-13 13-13l118 0c8 0 13 6 13 13l0 218c0 7-5 14-13 14z m-60-236c-5 0-10 5-10 10 0 5 5 10 10 10 5 0 9-5 9-10 0-5-4-10-9-10z m55 32l-111 0 0 187 111 0z"/>
<glyph unicode="&#115;" d="M355 212c-18 4-56 14-56 14 0 0 0 24 0 49 0 12-7 17-14 17-8 0-16-6-16-17 0-23 0-79 0-79 0 0-1 4-14 21-4 5-10 8-14 8-10 0-18-11-6-30 17-27 43-68 43-68l70 0c0 0 14 37 19 53 6 15 5 27-12 32z m40 173l-278 0c-8 0-13-7-13-14l0-176c0-8 6-14 13-14l111 0c-2 3-4 6-5 8-2 4-4 7-5 9l-98 0 0 169 249 0 0-146c5-3 10-7 12-12 4-7 4-17 1-28l13 0c8 0 13 7 13 14l0 176c0 7-5 14-13 14z m-7-112c-5 0-10 4-10 9 0 5 5 10 10 10 5 0 9-5 9-10 1-5-3-9-9-9z"/>
<glyph unicode="&#116;" d="M318 347l-38 0 0 6c0 7-5 12-12 12l-33 0c-7 0-12-5-12-12l0-6-43 0c-6 0-12-5-12-12 0-7 5-12 12-12l137 0c6 0 12 5 12 12 1 7-5 12-11 12z m-130-179c1-17 19-21 31-21 12 0 50 0 61 0 12 0 29 4 31 21 3 30 7 145 7 145l-137 0c0-1 5-115 7-145z m96 130l16 0-4-125c0-4-4-7-8-7 0 0 0 0-1 0-4 0-7 4-7 8z m-41 0l16 0 0-125c0-4-4-7-7-7-5 0-8 4-8 7l0 125z m-25 0l4-124c0-4-3-8-8-8 0 0 0 0 0 0-5 0-8 3-8 7l-4 125z"/>
<glyph unicode="&#117;" d="M376 365l-240 0c-8 0-14-6-14-13l0-163c0-7 7-13 14-13l103 0 0-18-30 0c-5 0-11-4-13-11l118 0c-2 7-8 11-14 11l-28 0 0 18 104 0c7 0 13 6 13 13l0 163c1 7-5 13-13 13z m-3-172l-235 0 0 155 235 0z"/>
<glyph unicode="&#118;" d="M330 195l0 38-38 0 0-10-12 0c-7 0-8 1-10 2-1 0-4 3-8 8-2 3-7 7-12 12l90 0 0-18 40 18 3 0 0 1 18 9-18 7 0 2-2 0-40 18 0-18-132 0c5 5 11 11 14 14 5 4 7 7 8 8 1 1 3 2 10 2l20 0c3-8 11-13 19-13 12 0 21 10 21 21 0 12-9 21-21 21-8 0-16-5-19-12l-20 0c-9 0-15-2-20-5-4-4-6-8-9-10l-26-26-18 0c-4 12-14 20-27 20-16 0-30-13-30-29 0-16 14-30 30-30 13 0 23 9 27 20l60 0c6-6 19-18 24-24 3-3 5-6 10-9 4-4 11-5 19-5 4 0 8 0 13 0l0-11 36 0z"/>
<glyph unicode="&#119;" d="M291 209l0 19c8 6 17 22 20 37 6 6 10 9 10 19 0 10-9 12-9 12 0 2 0 7 0 20 0 27-32 46-56 46-24 0-56-19-56-46 0-13 0-18 0-20 0 0-9-2-9-12 0-9 5-15 10-19 3-15 12-31 20-37l0-19c-16 0-72-14-72-44 0-6 0-17 0-17l213 0c0 0 0 11 0 17 1 30-55 44-71 44z"/>
<glyph unicode="&#120;" d="M355 201l-79 134c-5 7-12 11-20 11-8 0-16-4-20-11l-79-134c-4-7-4-16 0-24 4-7 13-11 21-11l157 0c9 0 16 4 21 11 2 3 3 8 3 12-1 4-2 8-4 12z m-89-5l-20 0 0 20 20 0z m0 28l-19 0-4 72 27 0z"/>
<glyph unicode="&#121;" d="M250 193c-36 0-49-6-67-21-4-3-4-9-1-13 2-3 4-4 7-4 2 0 5 1 7 2 14 11 24 16 54 16 33 0 42-6 55-16 3-3 10-3 13 1 3 4 3 10-1 14-17 14-32 21-67 21z m-25 93c0-13 11-24 25-24 13 0 24 11 24 24 0 14-11 24-24 24-14 0-25-10-25-24z m25-84c46 0 83 38 83 84 0 46-37 84-83 84-46 0-84-38-84-84 0-46 38-84 84-84z m37 84c0-20-17-37-37-37-21 0-38 17-38 37 0 21 17 37 38 37 20 0 37-16 37-37z m-105 0c0 37 30 67 68 67 3 0 6-3 6-6 0-3-3-7-6-7-30 0-55-24-55-54 0-4-3-6-6-6-4 0-7 3-7 6z"/>
<glyph unicode="&#65;" d="M256 251c-26 0-51-10-70-29l-2-2 28-27 2 2c11 11 26 17 42 17 16 0 31-6 43-17l2-2 27 27-2 2c-19 19-44 29-70 29z m0 60c-42 0-83-17-113-47l-2-2 28-27 2 2c22 22 53 35 85 35 32 0 63-13 85-35l2-2 28 27-2 2c-30 30-71 47-113 47z m152-4c-41 41-94 63-152 63-58 0-111-22-152-63l-2-2 28-27 2 2c33 33 77 51 124 51 47 0 91-19 124-51l2-2 28 27z m-151-112c-14 0-27-6-35-15l-2-1 37-37 35 37-2 1c-8 9-20 15-33 15z"/>
<glyph unicode="&#66;" d="M256 251c-26 0-51-10-70-29l-2-2 28-27 2 2c11 11 26 17 43 17 16 0 31-7 43-17l1-2 28 27-2 2c-20 19-45 29-71 29z m0 60c-42 0-83-17-113-47l-2-2 28-27 2 2c22 22 53 35 85 35 32 0 63-13 85-35l2-2 28 27-2 2c-30 30-71 47-113 47z m153-2c-41 40-95 63-153 63-58 0-112-22-153-63l-4-4 30-30 4 4c33 33 76 51 123 51 47 0 90-18 123-51l4-4 30 30z m-27-20c-34 33-79 50-126 50-47 0-92-18-126-50l-16 16c38 37 89 57 142 57 53 0 104-20 142-57z m-125-94c-14 0-27-6-35-15l-2-1 37-37 35 37-2 1c-8 9-20 15-33 15z"/>
<glyph unicode="&#67;" d="M256 250c-26 0-51-11-70-29l-2-2 28-28 2 2c11 12 26 18 42 18 16 0 31-6 43-17l2-2 27 28-2 1c-19 18-44 29-70 29z m0 62c-43 0-84-17-114-48l-4-4 30-30 4 4c23 23 52 35 84 35 32 0 61-12 84-35l4-4 30 30-4 4c-31 31-71 48-114 48z m87-67c-24 22-54 34-87 34-33 0-63-12-87-34l-16 16c28 26 65 41 103 41 38 0 75-14 103-41z m66 63c-41 41-95 63-153 63-58 0-112-22-153-63l-4-4 30-30 4 4c33 32 76 50 123 50 47 0 90-18 123-50l4-4 30 30z m-27-19c-34 32-79 50-126 50-47 0-92-18-126-50l-16 16c38 36 89 57 142 57 53 0 104-20 142-57z m-125-96c-14 0-27-5-35-14l-2-2 37-36 35 36-2 2c-8 9-20 14-33 14z"/>
<glyph unicode="&#68;" d="M256 252c-27 0-52-10-71-29l-4-4 30-30 4 4c11 11 26 17 41 17 15 0 30-6 41-17l4-4 30 30-4 4c-19 18-44 29-71 29z m44-49c-12 11-28 17-45 17-16 0-32-6-44-17l-16 16c16 15 37 23 60 23 23 0 45-8 61-23z m-44 109c-43 0-84-17-114-48l-4-4 30-30 4 4c23 23 52 35 84 35 32 0 61-12 84-35l4-4 30 30-4 4c-31 31-71 48-114 48z m87-67c-24 22-54 34-87 34-33 0-63-12-87-34l-16 16c28 26 65 41 103 41 38 0 75-14 103-41z m66 63c-41 41-95 63-153 63-58 0-112-22-153-63l-4-4 30-30 4 4c33 32 76 50 123 50 47 0 90-18 123-50l4-4 30 30z m-27-19c-34 32-79 50-126 50-47 0-92-18-126-50l-16 16c38 36 89 57 142 57 53 0 104-20 142-57z m-125-96c-14 0-27-5-35-14l-2-2 37-36 35 36-2 2c-8 9-20 14-33 14z"/>
<glyph unicode="&#69;" d="M257 195c-14 0-27-5-36-15l-3-3 39-39 38 39-3 3c-8 10-21 15-35 15z m0-43l-25 25c7 5 16 9 25 9 10 0 18-4 25-9z m84 226c-16 0-31-5-43-13-14 2-28 4-42 4-57 0-111-23-151-63l-4-4 28-28 4 4c33 32 77 51 124 51 4 0 8 0 12-1-2-6-3-12-5-19-2 0-5 0-8 0-42 0-83-17-112-46l-4-4 28-28 4 4c23 22 53 35 85 35 4 0 9-1 14-1 4-9 9-17 16-24-9 3-19 5-30 5-26 0-51-11-70-29l-5-3 29-29 3 4c12 12 27 18 43 18 16 0 30-7 42-18l4-4 28 29-5 3c-2 2-3 4-5 6 7-2 13-3 19-3 43 0 78 35 78 77 0 43-35 77-77 77z m-39-174c-13 10-29 17-45 17-18 0-34-6-46-17l-14 14c17 14 37 22 60 22 22 0 43-8 59-22z m-46 136c-48 0-93-18-127-51l-14 14c38 36 88 56 141 56 10 0 21-1 31-3-5-5-10-10-13-17-6 0-12 1-18 1z m0-60c-33 0-64-12-88-34l-13 13c27 26 63 40 102 40 2 0 5 0 7-1 0-6 2-13 3-19-4 1-7 1-11 1z m97-39l-24 0 0 24 24 0z m-1 34l-22 0-6 86 33 0z"/>
<glyph unicode="&#70;" d="M225 179l32-32 31 32c-15 17-47 17-63 0z m207 81l-72 123c-4 6-11 10-19 10-8 0-15-4-18-10l-15-25c-69 18-145 0-199-54l23-23c43 43 104 59 159 47l-14-23c-7 0-13 1-20 1-41 0-80-16-109-45l23-23c23 23 54 36 86 36 0 0 2 0 2 0l-8-14c-3-4-3-9-3-14-21-2-42-10-58-26l23-24c24 25 64 25 88 0l23 24c-3 3-6 5-9 8l100 0c7 0 14 4 18 11 2 3 3 7 3 11-1 3-2 7-4 10z m-100 118c1 3 5 5 9 5 4 0 8-2 10-5l12-22-44 0z m18-97l-17 0-5 66 26 0z m1-8l0-18-18 0 0 18z m73-30c-2-3-6-6-10-6l-145 0c-3 0-7 2-9 6-2 3-2 8 0 12l59 100 0-9 4-62 0-39 39 0 0 39 3 62 1 9 59-100c1-2 1-4 1-6-1-2-2-4-2-6z"/>
</font>
</defs>
</svg>
